<svg id="Group_40537" data-name="Group 40537" xmlns="http://www.w3.org/2000/svg" xmlns:xlink="http://www.w3.org/1999/xlink" width="350" height="84.992" viewBox="0 0 350 84.992">
  <defs>
    <clipPath id="clip-path">
      <rect id="Rectangle_59" data-name="Rectangle 59" width="350" height="84.992" fill="none"/>
    </clipPath>
    <clipPath id="clip-path-2">
      <rect id="Rectangle_60" data-name="Rectangle 60" width="83.328" height="84.667" fill="none"/>
    </clipPath>
  </defs>
  <path id="Path_1209" data-name="Path 1209" d="M43.943,15.8l4.613,10.386H45.775l-.856-2.053H40.268l-.776,2.053H36.751L40.946,15.8Zm.219,6.52-1.683-4.037-1.525,4.037Z" transform="translate(62.447 26.894)" fill="#3f4345"/>
  <g id="Group_39724" data-name="Group 39724">
    <g id="Group_39723" data-name="Group 39723" clip-path="url(#clip-path)">
      <path id="Path_1210" data-name="Path 1210" d="M49.368,15.8h2.617v5.965a4.4,4.4,0,0,1-1.36,3.491,5.756,5.756,0,0,1-3.893,1.187,5.713,5.713,0,0,1-3.874-1.2,4.34,4.34,0,0,1-1.381-3.462V15.8H44.1v6.041a2.28,2.28,0,0,0,.718,1.759,2.669,2.669,0,0,0,1.886.664,2.734,2.734,0,0,0,1.937-.677,2.514,2.514,0,0,0,.726-1.926Z" transform="translate(70.429 26.824)" fill="#3f4345"/>
      <path id="Path_1211" data-name="Path 1211" d="M56.163,15.8v1.926H52.356v8.583H49.738V17.723H45.932V15.8Z" transform="translate(77.995 26.824)" fill="#3f4345"/>
      <path id="Path_1212" data-name="Path 1212" d="M55.8,15.746a5.961,5.961,0,0,1,4.347,1.622,5.115,5.115,0,0,1,1.665,3.772,5.062,5.062,0,0,1-1.686,3.785,6.683,6.683,0,0,1-8.672.005,5.049,5.049,0,0,1-1.678-3.791,5.1,5.1,0,0,1,1.665-3.775,6,6,0,0,1,4.36-1.619m0,8.6a3.286,3.286,0,0,0,2.4-.885,3.087,3.087,0,0,0,.912-2.32,3.084,3.084,0,0,0-.912-2.323,3.729,3.729,0,0,0-4.811,0,3.084,3.084,0,0,0-.912,2.323,3.087,3.087,0,0,0,.912,2.32,3.318,3.318,0,0,0,2.412.885" transform="translate(84.523 26.739)" fill="#3f4345"/>
      <path id="Path_1213" data-name="Path 1213" d="M54.939,15.8h4.695a3.509,3.509,0,0,1,2.482.885,2.8,2.8,0,0,1,.955,2.137,2.716,2.716,0,0,1-1.808,2.571,3.7,3.7,0,0,1,1.506,1.94q.712,1.578,1.376,2.976H61.274c-.173-.345-.472-1.006-.9-1.978a6.106,6.106,0,0,0-1.093-1.872,1.424,1.424,0,0,0-.974-.416h-.753v4.266H54.939Zm2.617,1.926v2.393H58.94a1.627,1.627,0,0,0,1.05-.313,1.075,1.075,0,0,0,.386-.893c0-.791-.5-1.187-1.495-1.187Z" transform="translate(93.291 26.824)" fill="#3f4345"/>
      <rect id="Rectangle_54" data-name="Rectangle 54" width="2.617" height="10.509" transform="translate(158.747 42.619)" fill="#3f4345"/>
      <path id="Path_1214" data-name="Path 1214" d="M60.7,15.8h4.633a5.947,5.947,0,0,1,4.247,1.47,4.99,4.99,0,0,1,1.562,3.8,4.855,4.855,0,0,1-1.584,3.839,6.624,6.624,0,0,1-4.519,1.395H60.7Zm2.617,1.926v6.656h1.708a3.1,3.1,0,0,0,3.421-3.324,3.305,3.305,0,0,0-.89-2.442,3.469,3.469,0,0,0-2.56-.89Z" transform="translate(103.072 26.824)" fill="#3f4345"/>
      <path id="Path_1215" data-name="Path 1215" d="M71.829,15.8,76.5,26.305H73.68l-.863-2.078H68.108l-.782,2.078H64.552L68.8,15.8Zm.221,6.6-1.7-4.085L68.8,22.393Z" transform="translate(109.614 26.824)" fill="#3f4345"/>
      <path id="Path_1216" data-name="Path 1216" d="M69.422,15.8h4.633a5.947,5.947,0,0,1,4.247,1.47,5,5,0,0,1,1.559,3.8A4.853,4.853,0,0,1,78.28,24.91a6.624,6.624,0,0,1-4.519,1.395H69.422Zm2.617,1.926v6.656h1.708a3.1,3.1,0,0,0,3.421-3.324,3.305,3.305,0,0,0-.89-2.442,3.469,3.469,0,0,0-2.56-.89Z" transform="translate(117.884 26.824)" fill="#3f4345"/>
      <path id="Path_1217" data-name="Path 1217" d="M81.763,24.379v1.926H74.017V15.8h7.641v1.926H76.634v2.2h4.792v1.924H76.634v2.528Z" transform="translate(125.686 26.824)" fill="#3f4345"/>
      <path id="Path_1218" data-name="Path 1218" d="M89.849,15.8V26.305H87.64l-5.8-6.732v6.732H79.222V15.8h2.4l5.612,6.424V15.8Z" transform="translate(134.524 26.824)" fill="#3f4345"/>
      <path id="Path_1219" data-name="Path 1219" d="M90.895,15.8l4.668,10.509H92.746l-.863-2.078H87.174l-.782,2.078H83.618L87.862,15.8Zm.221,6.6-1.7-4.085L87.87,22.393Z" transform="translate(141.99 26.824)" fill="#3f4345"/>
      <path id="Path_1220" data-name="Path 1220" d="M98.344,23.185v2.293a8.675,8.675,0,0,1-4.131,1.047,6.272,6.272,0,0,1-4.455-1.546,5.151,5.151,0,0,1,.089-7.654,6.561,6.561,0,0,1,4.571-1.578,7.348,7.348,0,0,1,3.807.923v2.342a7.421,7.421,0,0,0-3.618-1.077,4.108,4.108,0,0,0-2.744.9A2.864,2.864,0,0,0,90.8,21.123a2.918,2.918,0,0,0,1.05,2.31,3.949,3.949,0,0,0,2.687.909,5.677,5.677,0,0,0,1.565-.213,15.272,15.272,0,0,0,2.242-.944" transform="translate(149.599 26.739)" fill="#3f4345"/>
      <rect id="Rectangle_55" data-name="Rectangle 55" width="2.617" height="10.509" transform="translate(250.117 42.619)" fill="#3f4345"/>
      <path id="Path_1221" data-name="Path 1221" d="M100.428,15.746a5.965,5.965,0,0,1,4.347,1.622,5.115,5.115,0,0,1,1.665,3.772,5.062,5.062,0,0,1-1.686,3.785,6.683,6.683,0,0,1-8.672.005A5.049,5.049,0,0,1,94.4,21.139a5.1,5.1,0,0,1,1.665-3.775,6,6,0,0,1,4.36-1.619m0,8.6a3.29,3.29,0,0,0,2.4-.885,3.087,3.087,0,0,0,.912-2.32,3.085,3.085,0,0,0-.912-2.323,3.729,3.729,0,0,0-4.811,0,3.075,3.075,0,0,0-.912,2.323,3.077,3.077,0,0,0,.912,2.32,3.318,3.318,0,0,0,2.412.885" transform="translate(160.304 26.739)" fill="#3f4345"/>
      <path id="Path_1222" data-name="Path 1222" d="M110.2,15.8V26.305h-2.21l-5.8-6.732v6.732H99.571V15.8h2.4l5.612,6.424V15.8Z" transform="translate(169.08 26.824)" fill="#3f4345"/>
      <path id="Path_1223" data-name="Path 1223" d="M111.245,15.8l4.668,10.509H113.1l-.863-2.078h-4.708l-.782,2.078h-2.774L108.212,15.8Zm.221,6.6-1.7-4.085-1.543,4.085Z" transform="translate(176.546 26.824)" fill="#3f4345"/>
      <path id="Path_1224" data-name="Path 1224" d="M116.854,24.379v1.926h-8.011V15.8h2.617v8.583Z" transform="translate(184.825 26.824)" fill="#3f4345"/>
      <path id="Path_1225" data-name="Path 1225" d="M37.168,32V21.507h3.545a7.479,7.479,0,0,1,3.391.642,4.868,4.868,0,0,1,1.986,1.891,5.269,5.269,0,0,1,.737,2.725,5.131,5.131,0,0,1-1.565,3.707,5.063,5.063,0,0,1-1.781,1.136,5.33,5.33,0,0,1-1.093.313A14.882,14.882,0,0,1,40.495,32Zm3.386-9.155H38.674v7.816H40.6a7.7,7.7,0,0,0,1.751-.154,4.232,4.232,0,0,0,1.041-.391,3.641,3.641,0,0,0,.766-.583,3.893,3.893,0,0,0,1.112-2.852,3.654,3.654,0,0,0-2.11-3.416,4,4,0,0,0-1.033-.337,10.3,10.3,0,0,0-1.573-.084" transform="translate(63.114 36.522)" fill="#3f4345"/>
      <path id="Path_1226" data-name="Path 1226" d="M41.445,21.507H47.4v1.338H42.951V26.05h4.3V27.4h-4.3v3.265h4.595V32h-6.1Z" transform="translate(70.377 36.521)" fill="#3f4345"/>
      <path id="Path_1227" data-name="Path 1227" d="M45.886,21.507h5.957v1.338H47.392V26.05h4.3V27.4h-4.3v3.265h4.595V32h-6.1Z" transform="translate(77.918 36.521)" fill="#3f4345"/>
      <path id="Path_1228" data-name="Path 1228" d="M57.118,21.507h1.406V32.016H57.013V23.838L53.783,27.9H53.5l-3.267-4.063v8.178H48.73V21.507h1.425l3.491,4.317Z" transform="translate(82.747 36.521)" fill="#3f4345"/>
      <path id="Path_1229" data-name="Path 1229" d="M53.2,21.507h5.957v1.338H54.7V26.05h4.3V27.4H54.7v3.265H59.3V32H53.2Z" transform="translate(90.336 36.521)" fill="#3f4345"/>
      <path id="Path_1230" data-name="Path 1230" d="M56.071,32.016V21.507H58.7a3.8,3.8,0,0,1,2.531.791,2.644,2.644,0,0,1,.936,2.137A2.63,2.63,0,0,1,60.4,27.022a4.568,4.568,0,0,1,.985.9,17.942,17.942,0,0,1,1.354,1.994c.367.6.661,1.047.88,1.346l.558.753H62.382l-.459-.693a1.2,1.2,0,0,0-.089-.127l-.294-.416-.464-.766-.5-.82a8.189,8.189,0,0,0-.853-1.031,3.279,3.279,0,0,0-.7-.553,2.4,2.4,0,0,0-1.05-.167h-.391v4.573Zm1.956-9.23h-.451V26.1h.572a4.27,4.27,0,0,0,1.568-.194,1.45,1.45,0,0,0,.661-.591,1.693,1.693,0,0,0,.237-.9,1.582,1.582,0,0,0-.264-.9,1.413,1.413,0,0,0-.739-.569,5.345,5.345,0,0,0-1.584-.165" transform="translate(95.213 36.522)" fill="#3f4345"/>
      <path id="Path_1231" data-name="Path 1231" d="M65.418,26.925h3.529V31.38a9.631,9.631,0,0,1-3.853.842A5.711,5.711,0,0,1,60.924,30.7a5.033,5.033,0,0,1-1.559-3.756,5.226,5.226,0,0,1,1.616-3.92,5.609,5.609,0,0,1,4.055-1.565,7.234,7.234,0,0,1,1.684.192,14.141,14.141,0,0,1,2.015.7v1.535a7.371,7.371,0,0,0-3.729-1.093,3.964,3.964,0,0,0-2.9,1.174,4.16,4.16,0,0,0,0,5.809,4.2,4.2,0,0,0,3.038,1.136A7.025,7.025,0,0,0,67.3,30.5l.143-.043V28.263H65.418Z" transform="translate(100.805 36.435)" fill="#3f4345"/>
      <path id="Path_1232" data-name="Path 1232" d="M63.729,23.458h5.957V24.8H65.235V28h4.3v1.349h-4.3v3.265h4.595v1.338h-6.1Zm3.675-3.1,1.454,2.323h-.842l-1.349-1.33-1.282,1.33h-.812l1.4-2.323Z" transform="translate(108.217 34.571)" fill="#3f4345"/>
      <path id="Path_1233" data-name="Path 1233" d="M74.905,21.507h1.43V32.016h-1.3l-7.026-8.094v8.094H66.6V21.507h1.22l7.085,8.162Z" transform="translate(113.093 36.521)" fill="#3f4345"/>
      <path id="Path_1234" data-name="Path 1234" d="M80.354,29.664v1.654a7.854,7.854,0,0,1-3.82.9,5.882,5.882,0,0,1-2.987-.707,5.191,5.191,0,0,1-1.94-1.948,5.278,5.278,0,0,1-.715-2.685,5.135,5.135,0,0,1,1.635-3.861,5.627,5.627,0,0,1,4.036-1.565,9.453,9.453,0,0,1,3.677.866v1.619a7.214,7.214,0,0,0-3.6-1.055,4.16,4.16,0,0,0-3,1.141,4.022,4.022,0,0,0-.019,5.7,4.2,4.2,0,0,0,3,1.112,6.81,6.81,0,0,0,3.731-1.174" transform="translate(120.38 36.435)" fill="#3f4345"/>
      <rect id="Rectangle_56" data-name="Rectangle 56" width="1.506" height="10.509" transform="translate(202.599 58.028)" fill="#3f4345"/>
      <path id="Path_1235" data-name="Path 1235" d="M80.6,21.484h1.058l4.711,10.571H84.825l-1.4-3.116H78.94l-1.311,3.116H76.083Zm2.21,6.117-1.694-3.807L79.539,27.6Z" transform="translate(129.195 36.483)" fill="#3f4345"/>
      <path id="Path_1236" data-name="Path 1236" d="M81.907,21.507h5.957v1.338H83.412V26.05h4.3V27.4h-4.3v3.265h4.595V32h-6.1Z" transform="translate(139.084 36.521)" fill="#3f4345"/>
      <path id="Path_1237" data-name="Path 1237" d="M86.318,32.024V21.5H89.65a3.431,3.431,0,0,1,2.4.812,2.8,2.8,0,0,1,.9,2.18,2.934,2.934,0,0,1-.459,1.627,2.643,2.643,0,0,1-1.257,1.025,6.387,6.387,0,0,1-2.285.318H87.829v4.56Zm3.068-9.184H87.829v3.286h1.646a2.092,2.092,0,0,0,1.416-.432,1.559,1.559,0,0,0,.494-1.238q0-1.615-2-1.616" transform="translate(146.575 36.512)" fill="#3f4345"/>
      <path id="Path_1238" data-name="Path 1238" d="M89.275,32.016V21.507h2.633a3.8,3.8,0,0,1,2.531.791,2.652,2.652,0,0,1,.936,2.137A2.63,2.63,0,0,1,93.6,27.022a4.567,4.567,0,0,1,.985.9,18.329,18.329,0,0,1,1.354,1.994c.367.6.661,1.047.88,1.346l.558.753H95.586l-.459-.693a1.2,1.2,0,0,0-.089-.127l-.294-.416-.464-.766-.5-.82a8.191,8.191,0,0,0-.853-1.031,3.279,3.279,0,0,0-.7-.553,2.4,2.4,0,0,0-1.05-.167h-.391v4.573Zm1.956-9.23h-.451V26.1h.569a4.277,4.277,0,0,0,1.57-.194,1.45,1.45,0,0,0,.661-.591,1.694,1.694,0,0,0,.237-.9,1.6,1.6,0,0,0-.264-.9,1.413,1.413,0,0,0-.739-.569,5.345,5.345,0,0,0-1.584-.165" transform="translate(151.596 36.522)" fill="#3f4345"/>
      <path id="Path_1239" data-name="Path 1239" d="M97.743,21.451a5.649,5.649,0,0,1,4.055,1.543,5.118,5.118,0,0,1,1.619,3.866,5.037,5.037,0,0,1-1.635,3.847,5.814,5.814,0,0,1-4.123,1.522A5.484,5.484,0,0,1,93.7,30.708,5.08,5.08,0,0,1,92.12,26.89a5.2,5.2,0,0,1,1.592-3.9,5.564,5.564,0,0,1,4.031-1.543m.059,1.43a4.076,4.076,0,0,0-2.965,1.128,3.844,3.844,0,0,0-1.16,2.882,3.773,3.773,0,0,0,1.166,2.828,4.326,4.326,0,0,0,5.849-.022,3.848,3.848,0,0,0,1.176-2.865,3.758,3.758,0,0,0-1.176-2.811,4,4,0,0,0-2.89-1.139" transform="translate(156.427 36.427)" fill="#3f4345"/>
      <path id="Path_1240" data-name="Path 1240" d="M96.291,21.5h8.78v1.338h-3.664v9.184H99.9V22.839h-3.6Z" transform="translate(163.51 36.512)" fill="#3f4345"/>
      <path id="Path_1241" data-name="Path 1241" d="M100.072,21.507h5.957v1.338h-4.452V26.05h4.3V27.4h-4.3v3.265h4.595V32h-6.1Z" transform="translate(169.93 36.521)" fill="#3f4345"/>
      <path id="Path_1242" data-name="Path 1242" d="M108.388,32.221l-.038.13a1.143,1.143,0,0,1,.637.375.978.978,0,0,1,.229.631,1.252,1.252,0,0,1-.459.974,2.194,2.194,0,0,1-1.468.4,2.621,2.621,0,0,1-.488-.038v-.85c.256.022.415.03.48.03a1.163,1.163,0,0,0,.669-.165.294.294,0,0,0,.143-.256.368.368,0,0,0-.154-.3.956.956,0,0,0-.567-.121.65.65,0,0,0-.173.024l.313-.888a5.3,5.3,0,0,1-2.083-.656,5.338,5.338,0,0,1-2.655-4.633,5.118,5.118,0,0,1,1.638-3.858,5.607,5.607,0,0,1,4.034-1.568,9.513,9.513,0,0,1,3.68.866v1.619a7.231,7.231,0,0,0-3.6-1.055,4.164,4.164,0,0,0-3,1.141,4.022,4.022,0,0,0-.019,5.7,4.185,4.185,0,0,0,3,1.112,6.8,6.8,0,0,0,3.731-1.174V31.32a7.853,7.853,0,0,1-3.82.9Z" transform="translate(174.522 36.435)" fill="#3f4345"/>
      <path id="Path_1243" data-name="Path 1243" d="M111.054,23.245h1.058l4.711,10.571h-1.541l-1.4-3.116H109.4l-1.311,3.116H106.54Zm2.744-2.8a2.237,2.237,0,0,1-.421,1.422.964.964,0,0,1-.791.4,3.045,3.045,0,0,1-1.112-.3,2.973,2.973,0,0,0-1.055-.3.451.451,0,0,0-.337.151.743.743,0,0,0-.173.451h-.631a2.706,2.706,0,0,1,.434-1.416,1.016,1.016,0,0,1,.8-.359,4.421,4.421,0,0,1,1.422.4,2.289,2.289,0,0,0,.72.2.491.491,0,0,0,.359-.146.889.889,0,0,0,.2-.5Zm-.534,8.914-1.694-3.807L110,29.361Z" transform="translate(180.913 34.722)" fill="#3f4345"/>
      <path id="Path_1244" data-name="Path 1244" d="M116.228,21.451a5.649,5.649,0,0,1,4.055,1.543,5.118,5.118,0,0,1,1.619,3.866,5.037,5.037,0,0,1-1.635,3.847,5.814,5.814,0,0,1-4.123,1.522,5.484,5.484,0,0,1-3.958-1.522,5.08,5.08,0,0,1-1.581-3.818,5.2,5.2,0,0,1,1.592-3.9,5.564,5.564,0,0,1,4.031-1.543m.059,1.43a4.076,4.076,0,0,0-2.965,1.128,3.844,3.844,0,0,0-1.16,2.882,3.772,3.772,0,0,0,1.166,2.828,4.326,4.326,0,0,0,5.849-.022,3.848,3.848,0,0,0,1.176-2.865,3.758,3.758,0,0,0-1.176-2.811,4,4,0,0,0-2.89-1.139" transform="translate(187.816 36.427)" fill="#3f4345"/>
      <path id="Path_1245" data-name="Path 1245" d="M126.376,29.664v1.654a7.854,7.854,0,0,1-3.82.9,5.882,5.882,0,0,1-2.987-.707,5.191,5.191,0,0,1-1.94-1.948,5.278,5.278,0,0,1-.715-2.685,5.135,5.135,0,0,1,1.635-3.861,5.627,5.627,0,0,1,4.036-1.565,9.453,9.453,0,0,1,3.677.866v1.619a7.214,7.214,0,0,0-3.6-1.055,4.16,4.16,0,0,0-3,1.141,4.022,4.022,0,0,0-.019,5.7,4.2,4.2,0,0,0,3,1.112,6.81,6.81,0,0,0,3.731-1.174" transform="translate(198.529 36.435)" fill="#3f4345"/>
      <rect id="Rectangle_57" data-name="Rectangle 57" width="1.506" height="10.509" transform="translate(326.772 58.028)" fill="#3f4345"/>
      <path id="Path_1246" data-name="Path 1246" d="M129.919,21.507h1.5l-4.441,10.555h-.343l-4.527-10.555h1.514l3.159,7.379Z" transform="translate(207.344 36.521)" fill="#3f4345"/>
      <rect id="Rectangle_58" data-name="Rectangle 58" width="1.506" height="10.509" transform="translate(339.928 58.028)" fill="#3f4345"/>
      <path id="Path_1247" data-name="Path 1247" d="M127.41,21.507h1.506v9.138h4.73v1.371H127.41Z" transform="translate(216.353 36.521)" fill="#3f4345"/>
      <path id="Path_1248" data-name="Path 1248" d="M81.827,42.388A39.506,39.506,0,1,1,42.321,2.718a39.586,39.586,0,0,1,39.505,39.67m2.45-.032A42.1,42.1,0,1,1,42.178.082a42.187,42.187,0,0,1,42.1,42.273" transform="translate(0.141 0.141)" fill="#444547" fill-rule="evenodd"/>
    </g>
  </g>
  <g id="Group_39726" data-name="Group 39726" transform="translate(0.16 0.165)">
    <g id="Group_39725" data-name="Group 39725" clip-path="url(#clip-path-2)">
      <path id="Path_1249" data-name="Path 1249" d="M80.872,42.39c0,21.912-17.479,39.672-39.044,39.672S2.784,64.3,2.784,42.39,20.266,2.718,41.828,2.718,80.872,20.48,80.872,42.39Zm2.421-.032c0,23.348-18.629,42.275-41.607,42.275S.083,65.7.083,42.357,18.709.082,41.687.082,83.294,19.01,83.294,42.357Z" transform="translate(-0.022 -0.027)" fill="none" stroke="#464749" stroke-miterlimit="3.864" stroke-width="0.165"/>
    </g>
  </g>
  <g id="Group_39728" data-name="Group 39728">
    <g id="Group_39727" data-name="Group 39727" clip-path="url(#clip-path)">
      <path id="Path_1250" data-name="Path 1250" d="M49.394,11.223a39.919,39.919,0,0,0-10.8-1.379A39.435,39.435,0,0,0,4.417,29.535,15.6,15.6,0,0,0,17.94,52.895c.121,0,.237,0,.359-.005a38.832,38.832,0,0,0,17.225-4.768,43.04,43.04,0,0,1-5.682-4.455,31.629,31.629,0,0,1-10.989,2.717c-.3.03-.6.049-.912.049A9.131,9.131,0,0,1,9.9,32.98,32.849,32.849,0,0,1,49.246,17.911a34.079,34.079,0,0,0,.329-4.751c0-.6-.148-1.346-.181-1.937" transform="translate(3.987 16.717)" fill="#4d9233"/>
      <path id="Path_1251" data-name="Path 1251" d="M32.524,57.289a39.861,39.861,0,0,0,6.894-8.429A39.43,39.43,0,0,0,40.829,9.444a15.6,15.6,0,0,0-26.975-.912c-.062.1-.124.2-.186.308A44.335,44.335,0,0,0,8.5,27.241a44.505,44.505,0,0,1,6.81-2.752,37.039,37.039,0,0,1,3.578-11.734,8.317,8.317,0,0,1,.445-.8A9.131,9.131,0,0,1,35,12.264a32.862,32.862,0,0,1-8.07,41.356,33.971,33.971,0,0,0,3.853,2.8c.51.316,1.22.585,1.738.871" transform="translate(14.439 2.04)" fill="#ec4615"/>
      <path id="Path_1252" data-name="Path 1252" d="M8.84,18.706a32.827,32.827,0,0,1,6.054-3.278A32.959,32.959,0,0,0,47.36,43.212c.389,0,1.12-.032,1.5-.046a9.124,9.124,0,0,0,8.426-9.1,8.806,8.806,0,0,0-1.214-4.646,33.081,33.081,0,0,0-9.829-10.682,41.052,41.052,0,0,0,.826-6.988A39.528,39.528,0,0,1,61.247,25.591,15.593,15.593,0,0,1,48.6,49.653c-.332.008-.658.043-.99.043A39.748,39.748,0,0,1,8.84,18.706" transform="translate(15.011 19.954)" fill="#0a2d61"/>
    </g>
  </g>
</svg>
